<svg width="178" height="50" viewBox="0 0 178 50" fill="none" xmlns="http://www.w3.org/2000/svg">
<path fill-rule="evenodd" clip-rule="evenodd" d="M7.9003 3.96387C7.40891 4.24447 6.70492 4.75575 6.33587 5.10004L5.66489 5.72603L6.25749 5.77502C6.69491 5.81101 7.04284 5.70569 7.58726 5.37204C8.38903 4.88048 9.34521 4.50394 9.47114 4.63008C9.66294 4.82179 8.95551 5.69755 6.84791 7.87725C5.6056 9.16194 4.19761 10.5142 3.71905 10.8822C2.8666 11.5376 1.20627 12.4697 1.20627 12.293C1.20627 12.2439 1.47801 11.8024 1.80998 11.3122C2.54057 10.2338 3.08358 9.18917 3.08358 8.86225C3.08358 8.06552 1.70219 9.42799 1.28621 10.6349C1.14886 11.0337 0.929993 12.1698 0.799989 13.1597C0.669985 14.1495 0.461916 15.4524 0.337544 16.0549C0.213172 16.6574 0.111328 17.3317 0.111328 17.5535C0.111172 17.9626 0.679372 18.6371 1.02417 18.6371C1.12805 18.6371 1.28997 18.8061 1.38415 19.0128C1.52197 19.3154 1.47551 19.6277 1.14604 20.6174C0.51761 22.5051 0.568454 22.8923 1.58455 23.958C2.50741 24.9258 2.85408 25.7803 2.68638 26.6742C2.63272 26.9604 2.66682 27.4844 2.76209 27.8384C3.16697 29.3426 4.43509 30.0242 6.48371 29.8384C7.94582 29.7059 8.31847 29.8977 8.44597 30.8485C8.54625 31.5959 8.98288 32.132 9.88884 32.6197C10.4372 32.9148 10.7329 32.9526 12.2773 32.9236L14.0397 32.8907L14.3892 33.4305C15.1752 34.6451 17.0866 34.8675 19.2507 33.9962L20.4777 33.5022L20.9041 33.959C21.2076 34.2839 21.5446 34.4477 22.0723 34.5269C22.7287 34.6254 22.9437 34.5742 23.9401 34.0815C26.2548 32.9371 29.5925 29.6855 30.6987 27.4974C31.3781 26.1532 31.3924 25.5973 30.7678 24.8111C30.2275 24.1308 30.2327 24.0065 30.8811 22.0854C31.3845 20.5938 31.314 19.9437 30.5576 19.1063C29.7854 18.2512 29.7267 17.8718 30.144 16.4273C30.3994 15.5431 30.4805 14.9265 30.4351 14.2132C30.3533 12.9284 29.9669 12.3741 28.832 11.9132C27.7318 11.4665 27.5886 11.1099 27.8283 9.41375C27.9236 8.74049 27.9555 8.00621 27.8992 7.78226C27.6147 6.64828 25.5921 5.33479 24.1306 5.33479C23.2372 5.33479 22.7542 5.0592 21.8673 4.04368C21.3788 3.48405 21.3099 3.45682 20.388 3.45682C19.822 3.45682 19.0519 3.58655 18.5307 3.76981C17.3906 4.17076 16.4242 4.17076 15.9119 3.76981C15.5857 3.51457 15.2683 3.46323 14.0009 3.46026C12.533 3.45697 12.4628 3.47294 11.9465 3.92631C11.2846 4.5077 11.0967 4.51568 11.0334 3.96544C10.9852 3.54618 10.9556 3.53397 9.88884 3.49438C8.90059 3.4576 8.70661 3.50345 7.9003 3.96387ZM14.6603 4.87625C14.6603 5.34183 13.8417 6.47425 12.4518 7.9314C11.598 8.82672 11.1944 9.38198 11.0748 9.82627C10.8582 10.6308 8.97929 12.4595 6.13312 14.6356C1.79309 17.9541 0.528874 18.3613 1.65198 16.0793C2.40681 14.5455 4.0443 12.8154 8.64231 8.69401C11.3713 6.2478 12.3977 5.43824 13.3282 4.99785C14.4501 4.46701 14.6603 4.44776 14.6603 4.87625ZM20.7051 5.41335C20.9849 6.14263 20.281 6.95016 16.9228 9.75225C14.229 11.9999 13.5311 12.8467 14.3728 12.8467C14.5588 12.8467 15.022 12.6644 15.402 12.4417C15.782 12.2188 16.1344 12.0781 16.185 12.1288C16.3103 12.254 12.2236 16.3724 10.6711 17.6853C8.86008 19.2169 8.2803 19.5751 7.77561 19.474C7.42065 19.4032 7.1586 19.5582 6.15659 20.4324C5.4989 21.0062 4.9609 21.5345 4.9609 21.6066C4.9609 21.8498 3.50254 22.706 3.08812 22.706C1.25571 22.706 2.80246 19.5559 5.27237 18.2574C6.91049 17.3964 8.62354 16.0408 11.0828 13.66C13.705 11.1213 15.4412 9.09214 15.9973 7.91622C16.5463 6.75532 17.4746 6.07941 19.3536 5.47282C20.4256 5.1268 20.5925 5.11945 20.7051 5.41335ZM25.0566 8.04893C25.3326 8.25066 25.3277 8.29432 24.9358 9.15052C22.8858 13.6303 15.3683 21.4664 9.22709 25.5257C7.27515 26.8157 5.59183 27.6831 4.78803 27.8129C4.30071 27.8917 4.21185 27.8576 4.13457 27.5623C4.01176 27.0924 4.64739 25.0432 4.95088 24.9308C5.08543 24.8809 6.14595 24.318 7.30754 23.6799C12.3071 20.9331 18.0553 15.5924 21.2668 10.7105C22.9244 8.19056 24.1111 7.35721 25.0566 8.04893ZM28.0811 14.2552C28.1848 15.5189 25.2783 19.2801 20.8699 23.587C17.5048 26.8745 15.1882 28.7152 12.9504 29.8796C10.4434 31.184 9.51495 31.3035 9.94923 30.2658C10.3281 29.3603 11.9298 27.8727 15.0515 25.5264C18.3662 23.0352 19.7587 21.6797 23.9687 16.8475C26.6755 13.7406 27.9719 12.9234 28.0811 14.2552ZM29.2095 20.6509C29.2095 21.398 27.2347 24.0355 24.7562 26.5984C21.9382 29.5126 19.1246 31.6558 16.9801 32.5225C15.0256 33.3122 15.5657 32.428 18.5633 29.9306C19.5573 29.1024 22.0953 26.7066 24.2034 24.6067C28.5855 20.2412 29.2095 19.7482 29.2095 20.6509ZM29.5224 26.357C29.5224 27.1391 26.8917 29.9813 24.5017 31.781C20.8606 34.523 20.7813 34.2135 24.2425 30.7683C26.7113 28.3107 29.1202 26.149 29.3899 26.149C29.4628 26.149 29.5224 26.2426 29.5224 26.357Z" fill="#007AFF"/>
<path d="M168.076 23.1226C168.047 24.6001 168.003 26.0702 167.944 27.5331C167.915 28.1621 167.886 28.8204 167.857 29.5079C167.827 30.1955 167.791 30.8903 167.747 31.5925C167.718 32.28 167.674 32.9602 167.615 33.6332C167.571 34.3061 167.528 34.9351 167.484 35.5202L164.478 35.4325C164.507 35.0082 164.529 34.5913 164.543 34.1817C164.558 33.7721 164.565 33.3625 164.565 32.9529C163.907 33.6551 163.212 34.2037 162.481 34.5986C161.749 34.9936 161.054 35.2935 160.396 35.4983C159.635 35.747 158.882 35.9079 158.136 35.981C157.975 36.0103 157.822 36.0249 157.675 36.0249C157.544 36.0249 157.397 36.0249 157.236 36.0249C156.212 36.0249 155.232 35.8786 154.296 35.5861C153.36 35.3081 152.526 34.8766 151.795 34.2914C151.078 33.7063 150.5 32.9749 150.061 32.0972C149.637 31.2048 149.425 30.1589 149.425 28.9594C149.425 27.9061 149.63 26.9187 150.039 25.9971C150.463 25.0609 151.049 24.249 151.795 23.5614C152.555 22.8593 153.47 22.3034 154.537 21.8938C155.605 21.4842 156.79 21.2648 158.092 21.2355C158.136 21.2355 158.385 21.2501 158.838 21.2794C159.292 21.3087 159.84 21.4037 160.484 21.5647C161.142 21.7109 161.844 21.9523 162.59 22.2888C163.351 22.6106 164.053 23.0641 164.697 23.6492C164.697 22.9909 164.682 22.2961 164.653 21.5647C164.624 20.8332 164.551 20.1164 164.434 19.4143C164.331 18.6975 164.163 18.0172 163.929 17.3736C163.695 16.7299 163.373 16.1667 162.963 15.684C162.569 15.1866 162.064 14.799 161.449 14.521C160.835 14.2285 160.089 14.0822 159.211 14.0822C158.524 14.0822 157.895 14.2138 157.324 14.4771C156.754 14.7405 156.249 15.0989 155.81 15.5523C155.371 16.0058 155.006 16.5471 154.713 17.1761C154.42 17.7905 154.201 18.4561 154.055 19.1729L150.368 17.988C150.544 17.1542 150.793 16.4154 151.114 15.7718C151.451 15.1281 151.824 14.5649 152.233 14.0822C152.658 13.5994 153.104 13.1898 153.572 12.8534C154.055 12.5023 154.53 12.2097 154.998 11.9757C156.095 11.4344 157.28 11.1053 158.553 10.9883C160.308 10.9883 161.793 11.2516 163.007 11.7782C164.222 12.3048 165.202 13.0801 165.948 14.1041C166.708 15.1281 167.25 16.3935 167.571 17.9002C167.908 19.4069 168.076 21.1477 168.076 23.1226ZM164.653 29.2227C164.653 28.9301 164.66 28.6448 164.675 28.3669C164.69 28.0743 164.697 27.7964 164.697 27.5331C163.922 26.7431 163.154 26.1434 162.393 25.7338C161.647 25.3242 160.967 25.017 160.352 24.8122C159.65 24.5781 158.97 24.4465 158.312 24.4172C157.405 24.4172 156.622 24.5489 155.964 24.8122C155.32 25.0609 154.786 25.3973 154.362 25.8215C153.952 26.2458 153.645 26.7285 153.44 27.2698C153.25 27.811 153.155 28.3742 153.155 28.9594C153.155 29.5591 153.265 30.1004 153.484 30.5831C153.704 31.0659 154.011 31.4755 154.406 31.8119C154.815 32.1484 155.305 32.4117 155.876 32.6018C156.461 32.7774 157.112 32.8652 157.829 32.8652C158.531 32.8066 159.262 32.6457 160.023 32.3824C160.681 32.1484 161.406 31.79 162.195 31.3072C163 30.8099 163.819 30.115 164.653 29.2227Z" fill="#007AFF"/>
<path d="M144.794 20.7747C144.736 19.9409 144.597 19.2095 144.377 18.5804C144.158 17.9514 143.887 17.4028 143.566 16.9347C143.258 16.4666 142.907 16.0717 142.512 15.7498C142.132 15.428 141.744 15.1647 141.349 14.9599C140.428 14.4771 139.389 14.1992 138.234 14.1261C137.37 14.1261 136.624 14.265 135.995 14.543C135.366 14.8209 134.832 15.2013 134.394 15.684C133.969 16.1521 133.626 16.6934 133.362 17.3078C133.099 17.9222 132.894 18.5658 132.748 19.2387C132.602 19.9116 132.506 20.5919 132.463 21.2794C132.419 21.9669 132.397 22.6106 132.397 23.2104C132.397 23.8101 132.455 24.4611 132.572 25.1633C132.689 25.8654 132.865 26.5676 133.099 27.2698C133.348 27.9719 133.647 28.6522 133.999 29.3104C134.35 29.9541 134.752 30.5319 135.205 31.0439C135.674 31.5413 136.2 31.9436 136.785 32.2508C137.37 32.5433 138.007 32.6896 138.694 32.6896C139.543 32.6165 140.369 32.3751 141.174 31.9655C141.51 31.79 141.854 31.5779 142.205 31.3292C142.556 31.0659 142.9 30.744 143.236 30.3637C143.573 29.9833 143.887 29.5445 144.18 29.0471C144.473 28.5351 144.721 27.95 144.926 27.2917L147.801 28.696C147.581 29.4713 147.281 30.1662 146.901 30.7806C146.535 31.395 146.118 31.9363 145.65 32.4044C145.197 32.8578 144.707 33.2528 144.18 33.5893C143.668 33.9257 143.163 34.211 142.666 34.445C141.466 34.9863 140.186 35.3447 138.826 35.5202C138.709 35.5202 138.592 35.5275 138.475 35.5422C138.372 35.5568 138.263 35.5641 138.146 35.5641C137.107 35.5641 136.156 35.3959 135.293 35.0594C134.445 34.7083 133.677 34.2329 132.989 33.6332C132.316 33.0334 131.731 32.3239 131.234 31.5047C130.736 30.6855 130.32 29.8005 129.983 28.8496C129.661 27.8842 129.42 26.8821 129.259 25.8435C129.098 24.8049 129.018 23.7589 129.018 22.7057C129.018 21.1404 129.193 19.6483 129.544 18.2294C129.91 16.8104 130.466 15.567 131.212 14.4991C131.958 13.4166 132.909 12.5608 134.064 11.9318C135.22 11.3028 136.595 10.9883 138.19 10.9883C139.418 10.9883 140.508 11.1418 141.459 11.449C142.41 11.7416 143.236 12.1366 143.939 12.634C144.641 13.1313 145.226 13.6945 145.694 14.3235C146.177 14.9526 146.572 15.6035 146.879 16.2765C147.186 16.9347 147.42 17.5857 147.581 18.2294C147.742 18.8584 147.844 19.4216 147.888 19.9189L144.794 20.7747Z" fill="#007AFF"/>
<path d="M124.98 12.9631L124.607 34.8839H121.601L121.294 12.6998L124.98 12.9631Z" fill="#007AFF"/>
<path d="M114.426 13.1825C115.07 13.8408 115.596 14.5796 116.006 15.3988C116.416 16.2033 116.737 17.0371 116.972 17.9002C117.206 18.7633 117.367 19.6264 117.454 20.4895C117.542 21.3526 117.586 22.1571 117.586 22.9032C117.571 24.4684 117.418 25.8801 117.125 27.1381C116.847 28.3815 116.474 29.4933 116.006 30.4734C115.538 31.4389 114.997 32.2727 114.382 32.9749C113.768 33.6771 113.117 34.2549 112.429 34.7084C111.756 35.1618 111.062 35.491 110.345 35.6958C109.643 35.9152 108.97 36.0249 108.326 36.0249C107.785 36.0249 107.266 35.981 106.768 35.8933C106.285 35.8055 105.832 35.6958 105.408 35.5641C105.027 35.8421 104.684 36.142 104.376 36.4638C104.084 36.7856 103.828 37.1074 103.608 37.4293C103.389 37.7657 103.221 38.0949 103.104 38.4167C102.987 38.7385 102.928 39.0457 102.928 39.3383C102.928 39.8357 103.067 40.216 103.345 40.4793C103.638 40.7426 103.916 40.8743 104.179 40.8743C104.559 40.8743 104.947 40.7646 105.342 40.5451C105.737 40.3403 106.146 40.077 106.571 39.7552C107.01 39.4334 107.463 39.0823 107.931 38.7019C108.414 38.3362 108.911 37.9925 109.423 37.6706C109.95 37.3488 110.506 37.0782 111.091 36.8588C111.676 36.654 112.298 36.5516 112.956 36.5516C113.541 36.5516 114.104 36.632 114.646 36.7929C115.187 36.9538 115.684 37.1879 116.138 37.4951C116.606 37.8169 117.008 38.2119 117.345 38.68C117.681 39.1481 117.937 39.6967 118.113 40.3257C118.186 40.5744 118.23 40.8158 118.244 41.0498C118.273 41.2839 118.288 41.5252 118.288 41.7739C118.288 43.0027 118.003 44.0925 117.432 45.0434C116.876 45.9942 116.123 46.7915 115.172 47.4352C114.221 48.0934 113.11 48.5835 111.837 48.9053C110.579 49.2418 109.24 49.41 107.821 49.41C107.28 49.41 106.732 49.3734 106.176 49.3003C105.634 49.2418 105.093 49.1394 104.552 48.9931L104.947 47.0182C105.239 47.0914 105.525 47.1426 105.803 47.1718C106.095 47.2011 106.381 47.2157 106.658 47.2157C107.361 47.2157 108.012 47.1499 108.611 47.0182C109.211 46.9012 109.73 46.7622 110.169 46.6013C110.681 46.4258 111.157 46.221 111.596 45.9869C112.78 45.3287 113.622 44.6923 114.119 44.0779C114.631 43.4635 114.887 42.8564 114.887 42.2567C114.887 41.9495 114.828 41.6569 114.711 41.379C114.609 41.1156 114.463 40.8743 114.273 40.6548C114.082 40.45 113.856 40.2818 113.592 40.1502C113.329 40.0331 113.036 39.9746 112.715 39.9746C112.203 39.9746 111.61 40.1355 110.937 40.4574C110.264 40.7938 109.511 41.3351 108.677 42.0811C107.975 42.6955 107.244 43.149 106.483 43.4416C105.722 43.7341 104.954 43.8804 104.179 43.8804C103.667 43.8804 103.148 43.8 102.621 43.6391C102.109 43.4928 101.641 43.2733 101.217 42.9808C100.807 42.6882 100.463 42.3152 100.185 41.8617C99.922 41.4228 99.7904 40.9108 99.7904 40.3257C99.7904 39.8722 99.8635 39.3895 100.01 38.8775C100.156 38.3801 100.376 37.8754 100.668 37.3634C100.961 36.8661 101.319 36.376 101.743 35.8933C102.182 35.4105 102.68 34.957 103.235 34.5328C102.358 33.9038 101.626 33.1358 101.041 32.2288C100.456 31.3072 99.9805 30.3198 99.6148 29.2666C99.2491 28.2133 98.9858 27.1308 98.8249 26.019C98.6786 24.8926 98.6055 23.8028 98.6055 22.7496C98.6055 20.6723 98.8395 18.8803 99.3076 17.3736C99.7904 15.8669 100.441 14.6234 101.261 13.6433C102.094 12.6632 103.067 11.9391 104.179 11.471C105.305 11.0029 106.519 10.7688 107.821 10.7688C108.611 10.7688 109.343 10.8347 110.016 10.9663L110.696 14.4552L114.031 6.00726L117.213 8.24542L114.426 13.1825ZM114.426 22.8593C114.426 22.4058 114.404 21.8938 114.36 21.3233C114.331 20.7528 114.251 20.1676 114.119 19.5679C114.002 18.9681 113.826 18.3757 113.592 17.7905C113.373 17.1907 113.08 16.6422 112.715 16.1448L110.74 19.6556L109.028 18.7121L110.696 14.4552L110.016 10.9663C109.562 10.8639 108.494 13.9066 107.953 13.9066C105.817 13.9944 104.252 14.7917 103.257 16.2984C102.263 17.8051 101.765 19.9409 101.765 22.7057C101.765 24.6074 101.941 26.2092 102.292 27.5111C102.658 28.8131 103.126 29.8663 103.696 30.6709C104.267 31.4608 104.903 32.0314 105.605 32.3824C106.322 32.7335 107.031 32.9091 107.734 32.9091C108.48 32.9091 109.24 32.7262 110.016 32.3605C110.806 31.9802 111.522 31.3877 112.166 30.5831C112.824 29.7639 113.358 28.7253 113.768 27.4673C114.192 26.1946 114.412 24.6586 114.426 22.8593Z" fill="#007AFF"/>
<path d="M95.3574 23.1226C95.3281 24.6001 95.2842 26.0702 95.2257 27.5331C95.1965 28.1621 95.1672 28.8204 95.138 29.5079C95.1087 30.1955 95.0721 30.8903 95.0282 31.5925C94.999 32.28 94.9551 32.9602 94.8966 33.6332C94.8527 34.3061 94.8088 34.9351 94.7649 35.5202L91.7588 35.4325C91.788 35.0082 91.81 34.5913 91.8246 34.1817C91.8392 33.7721 91.8465 33.3625 91.8465 32.9529C91.1883 33.6551 90.4934 34.2037 89.762 34.5986C89.0306 34.9936 88.3357 35.2935 87.6774 35.4983C86.9167 35.747 86.1634 35.9079 85.4173 35.981C85.2564 36.0103 85.1028 36.0249 84.9565 36.0249C84.8249 36.0249 84.6786 36.0249 84.5177 36.0249C83.4937 36.0249 82.5136 35.8786 81.5773 35.5861C80.6411 35.3081 79.8073 34.8766 79.0759 34.2914C78.3591 33.7063 77.7812 32.9749 77.3424 32.0972C76.9182 31.2048 76.7061 30.1589 76.7061 28.9594C76.7061 27.9061 76.9109 26.9187 77.3205 25.9971C77.7447 25.0609 78.3298 24.249 79.0759 23.5614C79.8366 22.8593 80.7508 22.3034 81.8187 21.8938C82.8866 21.4842 84.0715 21.2648 85.3734 21.2355C85.4173 21.2355 85.666 21.2501 86.1195 21.2794C86.573 21.3087 87.1215 21.4037 87.7652 21.5647C88.4235 21.7109 89.1256 21.9523 89.8717 22.2888C90.6324 22.6106 91.3345 23.0641 91.9782 23.6492C91.9782 22.9909 91.9636 22.2961 91.9343 21.5647C91.9051 20.8332 91.8319 20.1164 91.7149 19.4143C91.6125 18.6975 91.4443 18.0172 91.2102 17.3736C90.9761 16.7299 90.6543 16.1667 90.2447 15.684C89.8498 15.1866 89.3451 14.799 88.7307 14.521C88.1163 14.2285 87.3702 14.0822 86.4925 14.0822C85.805 14.0822 85.176 14.2138 84.6054 14.4771C84.0349 14.7405 83.5302 15.0989 83.0914 15.5523C82.6525 16.0058 82.2868 16.5471 81.9943 17.1761C81.7017 17.7905 81.4823 18.4561 81.336 19.1729L77.6496 17.988C77.8251 17.1542 78.0738 16.4154 78.3956 15.7718C78.7321 15.1281 79.1051 14.5649 79.5147 14.0822C79.939 13.5994 80.3851 13.1898 80.8532 12.8534C81.336 12.5023 81.8114 12.2097 82.2795 11.9757C83.3766 11.4344 84.5616 11.1053 85.8342 10.9883C87.5897 10.9883 89.0744 11.2516 90.2886 11.7782C91.5028 12.3048 92.4829 13.0801 93.2289 14.1041C93.9896 15.1281 94.5309 16.3935 94.8527 17.9002C95.1892 19.4069 95.3574 21.1477 95.3574 23.1226ZM91.9343 29.2227C91.9343 28.9301 91.9416 28.6448 91.9563 28.3669C91.9709 28.0743 91.9782 27.7964 91.9782 27.5331C91.2029 26.7431 90.4349 26.1434 89.6742 25.7338C88.9282 25.3242 88.2479 25.017 87.6335 24.8122C86.9314 24.5781 86.2511 24.4465 85.5929 24.4172C84.6859 24.4172 83.9033 24.5489 83.245 24.8122C82.6013 25.0609 82.0674 25.3973 81.6432 25.8215C81.2336 26.2458 80.9264 26.7285 80.7216 27.2698C80.5314 27.811 80.4363 28.3742 80.4363 28.9594C80.4363 29.5591 80.546 30.1004 80.7655 30.5831C80.9849 31.0659 81.2921 31.4755 81.6871 31.8119C82.0967 32.1484 82.5867 32.4117 83.1572 32.6018C83.7424 32.7774 84.3933 32.8652 85.1101 32.8652C85.8123 32.8066 86.5437 32.6457 87.3044 32.3824C87.9627 32.1484 88.6868 31.79 89.4767 31.3072C90.2813 30.8099 91.1005 30.115 91.9343 29.2227Z" fill="#007AFF"/>
<path d="M69.7946 34.7961C69.9701 33.6112 70.1164 32.4629 70.2334 31.3511C70.3505 30.2394 70.4382 29.1934 70.4968 28.2133C70.5553 27.2332 70.5918 26.3409 70.6065 25.5363C70.6357 24.7171 70.6503 24.0149 70.6503 23.4298C70.6503 21.2648 70.4894 19.6264 70.1676 18.5146C69.8458 17.3882 69.3338 16.825 68.6316 16.825C68.0904 16.825 67.476 17.2639 66.7884 18.1416C66.1155 19.0047 65.4426 20.3505 64.7697 22.1791C64.799 22.6033 64.8209 23.0568 64.8355 23.5395C64.8502 24.0076 64.8575 24.5123 64.8575 25.0536C64.8575 26.4579 64.8063 27.9866 64.7039 29.6396C64.6015 31.2926 64.4113 33.0553 64.1334 34.9278L60.9078 35.1253C61.1126 33.0627 61.2442 31.2122 61.3027 29.5738C61.3613 27.9354 61.3905 26.5164 61.3905 25.3169C61.3905 23.62 61.3466 22.201 61.2589 21.06C61.1711 19.919 61.0541 19.0047 60.9078 18.3171C60.7761 17.615 60.6225 17.1176 60.447 16.825C60.2714 16.5325 60.0959 16.3862 59.9204 16.3862C59.5985 16.3862 59.2182 16.7226 58.7793 17.3955C58.3551 18.0685 57.8358 19.0632 57.2214 20.3798C56.607 21.711 56.1389 22.9909 55.8171 24.2197C55.4952 25.4485 55.2392 26.6554 55.0491 27.8403C54.8735 29.0252 54.7346 30.1955 54.6322 31.3511C54.5298 32.5068 54.4054 33.6697 54.2591 34.84L51.253 34.9278C51.2822 33.8745 51.2969 32.8359 51.2969 31.8119C51.2969 30.7879 51.2969 29.7932 51.2969 28.8277C51.2969 26.5018 51.2749 24.3733 51.231 22.4424C51.1871 20.5114 51.1433 18.8365 51.0994 17.4175C51.0409 15.7645 50.9823 14.2797 50.9238 12.9631L54.9174 13.1387V20.2042C55.0344 19.7946 55.188 19.3265 55.3782 18.7999C55.5684 18.2586 55.7878 17.7101 56.0365 17.1542C56.2852 16.5837 56.5704 16.0278 56.8923 15.4865C57.2287 14.9306 57.5944 14.4406 57.9894 14.0164C58.3844 13.5775 58.8159 13.2264 59.284 12.9631C59.7521 12.6998 60.2641 12.5681 60.82 12.5681C61.5953 12.5681 62.3048 12.9777 62.9484 13.7969C63.6067 14.6015 64.0822 15.8376 64.3747 17.5053C64.916 16.4813 65.4645 15.684 66.0204 15.1135C66.5763 14.543 67.081 14.1261 67.5345 13.8628C68.0026 13.5848 68.3902 13.4166 68.6974 13.3581C69.0046 13.2996 69.1948 13.2703 69.268 13.2703C69.8677 13.2703 70.4456 13.4093 71.0014 13.6872C71.5573 13.9652 72.0474 14.4991 72.4716 15.289C72.9105 16.0644 73.2542 17.1469 73.5029 18.5366C73.7662 19.9263 73.8979 21.7256 73.8979 23.9345C73.8979 25.3827 73.8394 27.0138 73.7223 28.8277C73.6053 30.627 73.4224 32.6604 73.1738 34.9278L69.7946 34.7961Z" fill="#007AFF"/>
<path d="M45.0496 3.82612L44.6998 34.5683H41.8808L41.5928 3.45685L45.0496 3.82612Z" fill="#007AFF"/>
<path d="M130.362 7.22428C130.363 7.13397 130.338 7.04525 130.291 6.96813C130.244 6.89102 130.177 6.82858 130.096 6.78788L127.606 5.53105L127.231 2.7677C127.215 2.68062 127.176 2.59952 127.117 2.53358C127.058 2.46765 126.982 2.41951 126.897 2.3946L124.393 9.87078L126.322 11.885C126.384 11.9503 126.464 11.9968 126.551 12.0193C126.639 12.0417 126.731 12.0392 126.817 12.0121C126.903 11.9849 126.98 11.9342 127.039 11.8657C127.098 11.7971 127.136 11.7135 127.15 11.6242L127.577 8.86797L130.088 7.65607C130.17 7.61681 130.238 7.55556 130.287 7.47926C130.335 7.40295 130.361 7.31463 130.362 7.22428Z" fill="#007AFF"/>
<path d="M126.406 2.49176L124.442 4.47127L121.697 3.97493C121.608 3.95883 121.517 3.96795 121.433 4.00125C121.349 4.03455 121.275 4.09071 121.222 4.16336C121.168 4.23601 121.136 4.32226 121.128 4.41235C121.121 4.50245 121.139 4.59278 121.18 4.67315L122.456 7.15295L121.136 9.60984C121.093 9.68941 121.073 9.77932 121.079 9.86942C121.085 9.95953 121.116 10.0462 121.168 10.1198C121.22 10.1933 121.292 10.2507 121.376 10.2856C121.459 10.3204 121.55 10.3312 121.639 10.3169L124.393 9.87032L126.894 2.40241C126.73 2.34812 126.546 2.37097 126.406 2.49176Z" fill="#007AFF"/>
<path d="M124.253 1.82453C124.253 1.79862 124.246 1.77317 124.232 1.75105C124.219 1.72893 124.199 1.71102 124.176 1.69934L123.462 1.3388L123.354 0.546084C123.35 0.521103 123.339 0.497839 123.322 0.478925C123.305 0.46001 123.283 0.4462 123.259 0.439056L122.54 2.58372L123.094 3.16154C123.112 3.18027 123.134 3.1936 123.16 3.20005C123.185 3.20649 123.211 3.20577 123.236 3.19799C123.26 3.19021 123.283 3.17566 123.299 3.15599C123.316 3.13633 123.327 3.11233 123.331 3.08672L123.454 2.29605L124.174 1.94839C124.197 1.93713 124.217 1.91956 124.231 1.89767C124.245 1.87578 124.252 1.85045 124.253 1.82453Z" fill="#007AFF"/>
<path d="M123.118 0.466915L122.554 1.03477L121.767 0.892386C121.741 0.887769 121.715 0.890386 121.691 0.899939C121.667 0.909491 121.646 0.9256 121.631 0.946441C121.615 0.967282 121.606 0.992024 121.604 1.01787C121.602 1.04371 121.607 1.06963 121.619 1.09268L121.985 1.80405L121.606 2.50886C121.594 2.53168 121.588 2.55747 121.59 2.58332C121.591 2.60917 121.6 2.63404 121.615 2.65514C121.63 2.67623 121.651 2.6927 121.675 2.7027C121.699 2.71269 121.725 2.7158 121.75 2.71169L122.54 2.58358L123.258 0.441285C123.211 0.425708 123.158 0.432265 123.118 0.466915Z" fill="#007AFF"/>
<path d="M130.203 3.7562C130.192 3.74883 130.179 3.7446 130.166 3.744C130.153 3.74339 130.14 3.74644 130.129 3.7528L129.778 3.94907L129.417 3.77104C129.406 3.76583 129.393 3.76398 129.38 3.7657C129.367 3.76742 129.356 3.77264 129.346 3.78077L130.038 4.68338L130.434 4.61532C130.447 4.61311 130.459 4.60736 130.469 4.59871C130.478 4.59005 130.485 4.57885 130.489 4.56635C130.493 4.55386 130.493 4.54057 130.49 4.528C130.486 4.51543 130.479 4.50408 130.47 4.49522L130.174 4.22187L130.232 3.82378C130.234 3.81089 130.232 3.79772 130.227 3.78578C130.222 3.77384 130.213 3.76359 130.203 3.7562Z" fill="#007AFF"/>
<path d="M129.318 3.84726L129.396 4.24185L129.115 4.52994C129.106 4.53927 129.1 4.55097 129.097 4.5637C129.094 4.57644 129.095 4.5897 129.099 4.60199C129.104 4.61428 129.111 4.62511 129.122 4.63325C129.132 4.6414 129.144 4.64653 129.157 4.64806L129.556 4.69568L129.744 5.05173C129.75 5.06325 129.759 5.07284 129.77 5.07943C129.781 5.08602 129.794 5.08933 129.807 5.089C129.82 5.08867 129.833 5.08471 129.844 5.07756C129.855 5.07041 129.863 5.06036 129.869 5.04854L130.037 4.68332L129.346 3.7817C129.327 3.79689 129.315 3.82084 129.318 3.84726Z" fill="#007AFF"/>
<path d="M174.486 11.0481L172.904 6.90506H173.874L174.811 9.53949L175.754 6.90506H176.724L175.137 11.0481H174.486ZM172.516 11.0481V6.90506H173.667V11.0481H172.516ZM175.961 11.0481V6.90506H177.111V11.0481H175.961ZM169.391 11.0481V7.26532H170.542V11.0481H169.391ZM168.135 7.8395V6.90506H171.798V7.8395H168.135Z" fill="#007AFF"/>
</svg>
